<svg width="81" height="16" viewBox="0 0 81 16" fill="none" xmlns="http://www.w3.org/2000/svg">
<path d="M8.59229 0L10.3884 5.52786H16.2007L11.4985 8.94427L13.2946 14.4721L8.59229 11.0557L3.89 14.4721L5.68612 8.94427L0.983833 5.52786H6.79617L8.59229 0Z" fill="#F9CC00"/>
<path d="M24.5923 0L26.3884 5.52786H32.2007L27.4985 8.94427L29.2946 14.4721L24.5923 11.0557L19.89 14.4721L21.6861 8.94427L16.9838 5.52786H22.7962L24.5923 0Z" fill="#F9CC00"/>
<path d="M40.5923 0L42.3884 5.52786H48.2007L43.4985 8.94427L45.2946 14.4721L40.5923 11.0557L35.89 14.4721L37.6861 8.94427L32.9838 5.52786H38.7962L40.5923 0Z" fill="#F9CC00"/>
<path d="M56.5923 0L58.3884 5.52786H64.2007L59.4985 8.94427L61.2946 14.4721L56.5923 11.0557L51.89 14.4721L53.6861 8.94427L48.9838 5.52786H54.7962L56.5923 0Z" fill="#F9CC00"/>
<path d="M72.5923 0L74.3884 5.52786H80.2007L75.4985 8.94427L77.2946 14.4721L72.5923 11.0557L67.89 14.4721L69.6861 8.94427L64.9838 5.52786H70.7962L72.5923 0Z" fill="#F9CC00"/>
</svg>
